<?xml version="1.0" encoding="UTF-8"?>
<svg xmlns="http://www.w3.org/2000/svg" xmlns:xlink="http://www.w3.org/1999/xlink" width="1992.528pt" height="996.264pt" viewBox="0 0 1992.528 996.264" version="1.1">
<defs>
<g>
<symbol overflow="visible" id="glyph0-0">
<path style="stroke:none;" d=""/>
</symbol>
<symbol overflow="visible" id="glyph0-1">
<path style="stroke:none;" d="M 15.390625 -16.828125 C 15.390625 -17.265625 15.359375 -17.296875 15.21875 -17.296875 C 15.109375 -17.296875 15.09375 -17.265625 14.921875 -16.96875 L 13.828125 -14.890625 C 12.609375 -16.4375 11.125 -17.328125 9.21875 -17.328125 C 4.984375 -17.328125 1.140625 -13.578125 1.140625 -8.46875 C 1.140625 -3.328125 4.984375 0.390625 9.25 0.390625 C 13.03125 0.390625 15.390625 -2.953125 15.390625 -5.796875 C 15.390625 -6.046875 15.390625 -6.140625 15.171875 -6.140625 C 14.96875 -6.140625 14.96875 -6.078125 14.9375 -5.84375 C 14.75 -2.375 12.265625 -0.25 9.59375 -0.25 C 7.0625 -0.25 3.015625 -2.03125 3.015625 -8.46875 C 3.015625 -14.9375 7.140625 -16.671875 9.546875 -16.671875 C 12.34375 -16.671875 14.375 -14.25 14.84375 -10.796875 C 14.890625 -10.5 14.890625 -10.453125 15.109375 -10.453125 C 15.390625 -10.453125 15.390625 -10.5 15.390625 -10.953125 Z M 15.390625 -16.828125 "/>
</symbol>
<symbol overflow="visible" id="glyph0-2">
<path style="stroke:none;" d="M 14.625 -14.640625 C 14.84375 -15.1875 15.234375 -16.25 16.90625 -16.28125 L 16.90625 -16.921875 C 16.328125 -16.875 15.6875 -16.875 15.0625 -16.875 C 14.46875 -16.875 13.453125 -16.875 12.890625 -16.921875 L 12.890625 -16.28125 C 14.125 -16.203125 14.171875 -15.34375 14.171875 -15.1875 C 14.171875 -14.921875 14.09375 -14.75 14.03125 -14.546875 L 9.140625 -1.828125 L 4.046875 -15.1875 C 3.96875 -15.359375 3.921875 -15.484375 3.921875 -15.609375 C 3.921875 -16.28125 4.90625 -16.28125 5.421875 -16.28125 L 5.421875 -16.921875 C 4.640625 -16.875 3.46875 -16.875 2.65625 -16.875 C 2 -16.875 0.84375 -16.875 0.25 -16.921875 L 0.25 -16.28125 C 1.6875 -16.28125 1.953125 -16.1875 2.25 -15.390625 L 8.15625 0 C 8.28125 0.34375 8.296875 0.390625 8.578125 0.390625 C 8.84375 0.390625 8.875 0.34375 9 0 Z M 14.625 -14.640625 "/>
</symbol>
<symbol overflow="visible" id="glyph0-3">
<path style="stroke:none;" d="M 4.875 -15.171875 C 4.875 -16.28125 5.171875 -16.28125 6.96875 -16.28125 L 6.96875 -16.921875 C 6.171875 -16.875 4.90625 -16.875 4.0625 -16.875 C 3.21875 -16.875 1.953125 -16.875 1.171875 -16.921875 L 1.171875 -16.28125 C 2.953125 -16.28125 3.25 -16.28125 3.25 -15.171875 L 3.25 -1.765625 C 3.25 -0.640625 2.953125 -0.640625 1.171875 -0.640625 L 1.171875 0 C 1.953125 -0.046875 3.21875 -0.046875 4.0625 -0.046875 C 4.90625 -0.046875 6.171875 -0.046875 6.96875 0 L 6.96875 -0.640625 C 5.171875 -0.640625 4.875 -0.640625 4.875 -1.765625 Z M 4.875 -15.171875 "/>
</symbol>
<symbol overflow="visible" id="glyph0-4">
<path style="stroke:none;" d="M 10.28125 -7.53125 C 10.28125 -8.796875 10.03125 -10.859375 7.109375 -10.859375 C 5.15625 -10.859375 4.140625 -9.34375 3.765625 -8.34375 L 3.734375 -8.34375 L 3.734375 -10.859375 L 0.8125 -10.578125 L 0.8125 -9.9375 C 2.28125 -9.9375 2.5 -9.78125 2.5 -8.59375 L 2.5 -1.703125 C 2.5 -0.765625 2.40625 -0.640625 0.8125 -0.640625 L 0.8125 0 C 1.40625 -0.046875 2.5 -0.046875 3.140625 -0.046875 C 3.796875 -0.046875 4.90625 -0.046875 5.5 0 L 5.5 -0.640625 C 3.921875 -0.640625 3.8125 -0.75 3.8125 -1.703125 L 3.8125 -6.46875 C 3.8125 -8.75 5.203125 -10.453125 6.9375 -10.453125 C 8.765625 -10.453125 8.96875 -8.828125 8.96875 -7.625 L 8.96875 -1.703125 C 8.96875 -0.765625 8.875 -0.640625 7.28125 -0.640625 L 7.28125 0 C 7.875 -0.046875 8.96875 -0.046875 9.609375 -0.046875 C 10.265625 -0.046875 11.375 -0.046875 11.96875 0 L 11.96875 -0.640625 C 10.390625 -0.640625 10.28125 -0.75 10.28125 -1.703125 Z M 10.28125 -7.53125 "/>
</symbol>
<symbol overflow="visible" id="glyph0-5">
<path style="stroke:none;" d="M 3.796875 -10.015625 L 6.609375 -10.015625 L 6.609375 -10.65625 L 3.734375 -10.65625 L 3.734375 -13.65625 C 3.734375 -15.71875 4.78125 -17 5.84375 -17 C 6.171875 -17 6.546875 -16.90625 6.796875 -16.734375 C 6.59375 -16.671875 6.078125 -16.5 6.078125 -15.890625 C 6.078125 -15.234375 6.5625 -15.046875 6.90625 -15.046875 C 7.265625 -15.046875 7.75 -15.234375 7.75 -15.890625 C 7.75 -16.828125 6.859375 -17.390625 5.875 -17.390625 C 4.453125 -17.390625 2.53125 -16.234375 2.53125 -13.609375 L 2.53125 -10.65625 L 0.546875 -10.65625 L 0.546875 -10.015625 L 2.53125 -10.015625 L 2.53125 -1.703125 C 2.53125 -0.765625 2.421875 -0.640625 0.84375 -0.640625 L 0.84375 0 C 1.4375 -0.046875 2.578125 -0.046875 3.21875 -0.046875 C 3.9375 -0.046875 5.203125 -0.046875 5.875 0 L 5.875 -0.640625 C 4.09375 -0.640625 3.796875 -0.640625 3.796875 -1.765625 Z M 3.796875 -10.015625 "/>
</symbol>
<symbol overflow="visible" id="glyph0-6">
<path style="stroke:none;" d="M 10.6875 -5.296875 C 10.6875 -8.46875 8.375 -10.953125 5.671875 -10.953125 C 2.96875 -10.953125 0.671875 -8.46875 0.671875 -5.296875 C 0.671875 -2.1875 2.96875 0.203125 5.671875 0.203125 C 8.375 0.203125 10.6875 -2.1875 10.6875 -5.296875 Z M 5.671875 -0.25 C 4.515625 -0.25 3.515625 -0.9375 2.953125 -1.90625 C 2.328125 -3.015625 2.25 -4.40625 2.25 -5.5 C 2.25 -6.546875 2.296875 -7.828125 2.953125 -8.953125 C 3.4375 -9.765625 4.40625 -10.5625 5.671875 -10.5625 C 6.796875 -10.5625 7.734375 -9.9375 8.328125 -9.0625 C 9.09375 -7.90625 9.09375 -6.265625 9.09375 -5.5 C 9.09375 -4.53125 9.046875 -3.046875 8.375 -1.859375 C 7.6875 -0.71875 6.609375 -0.25 5.671875 -0.25 Z M 5.671875 -0.25 "/>
</symbol>
<symbol overflow="visible" id="glyph0-7">
<path style="stroke:none;" d="M 1.28125 -16.921875 L 1.28125 -16.28125 C 3 -16.28125 3.265625 -16.28125 3.265625 -15.171875 L 3.265625 -1.765625 C 3.265625 -0.640625 3 -0.640625 1.28125 -0.640625 L 1.28125 0 L 9.171875 0 C 13.15625 0 16.359375 -3.671875 16.359375 -8.328125 C 16.359375 -13.015625 13.203125 -16.921875 9.171875 -16.921875 Z M 5.890625 -0.640625 C 4.90625 -0.640625 4.859375 -0.765625 4.859375 -1.609375 L 4.859375 -15.3125 C 4.859375 -16.15625 4.90625 -16.28125 5.890625 -16.28125 L 8.671875 -16.28125 C 10.734375 -16.28125 14.515625 -15.0625 14.515625 -8.328125 C 14.515625 -4.828125 13.5 -3.421875 13.03125 -2.75 C 12.4375 -1.984375 11.03125 -0.640625 8.671875 -0.640625 Z M 5.890625 -0.640625 "/>
</symbol>
<symbol overflow="visible" id="glyph0-8">
<path style="stroke:none;" d="M 9.4375 -5.828125 C 9.546875 -5.921875 9.546875 -5.96875 9.546875 -6.21875 C 9.546875 -8.75 8.203125 -10.953125 5.375 -10.953125 C 2.75 -10.953125 0.671875 -8.453125 0.671875 -5.40625 C 0.671875 -2.1875 3.015625 0.203125 5.65625 0.203125 C 8.421875 0.203125 9.515625 -2.421875 9.515625 -2.953125 C 9.515625 -3.125 9.375 -3.125 9.3125 -3.125 C 9.140625 -3.125 9.125 -3.078125 9.015625 -2.78125 C 8.46875 -1.09375 7.109375 -0.25 5.828125 -0.25 C 4.765625 -0.25 3.6875 -0.84375 3.015625 -1.9375 C 2.25 -3.203125 2.25 -4.65625 2.25 -5.828125 Z M 2.28125 -6.1875 C 2.453125 -9.765625 4.359375 -10.5625 5.359375 -10.5625 C 7.03125 -10.5625 8.171875 -8.96875 8.203125 -6.1875 Z M 2.28125 -6.1875 "/>
</symbol>
<symbol overflow="visible" id="glyph0-9">
<path style="stroke:none;" d="M 7.65625 -10.453125 C 7.65625 -10.90625 7.625 -10.921875 7.484375 -10.921875 C 7.390625 -10.921875 7.359375 -10.90625 7.0625 -10.53125 C 6.984375 -10.4375 6.765625 -10.1875 6.6875 -10.09375 C 5.890625 -10.921875 4.78125 -10.953125 4.359375 -10.953125 C 1.609375 -10.953125 0.625 -9.515625 0.625 -8.078125 C 0.625 -5.84375 3.140625 -5.328125 3.859375 -5.171875 C 5.421875 -4.859375 5.96875 -4.765625 6.5 -4.3125 C 6.8125 -4.015625 7.359375 -3.46875 7.359375 -2.578125 C 7.359375 -1.53125 6.765625 -0.203125 4.484375 -0.203125 C 2.328125 -0.203125 1.5625 -1.828125 1.109375 -4.015625 C 1.046875 -4.359375 1.046875 -4.390625 0.84375 -4.390625 C 0.640625 -4.390625 0.625 -4.359375 0.625 -3.859375 L 0.625 -0.296875 C 0.625 0.15625 0.640625 0.171875 0.796875 0.171875 C 0.921875 0.171875 0.9375 0.15625 1.0625 -0.046875 C 1.21875 -0.265625 1.59375 -0.875 1.734375 -1.109375 C 2.234375 -0.453125 3.09375 0.203125 4.484375 0.203125 C 6.9375 0.203125 8.25 -1.140625 8.25 -3.078125 C 8.25 -4.34375 7.578125 -5 7.265625 -5.296875 C 6.515625 -6.078125 5.65625 -6.25 4.609375 -6.4375 C 3.25 -6.734375 1.515625 -7.09375 1.515625 -8.59375 C 1.515625 -9.25 1.859375 -10.609375 4.359375 -10.609375 C 7.015625 -10.609375 7.15625 -8.125 7.21875 -7.328125 C 7.234375 -7.21875 7.359375 -7.1875 7.4375 -7.1875 C 7.65625 -7.1875 7.65625 -7.265625 7.65625 -7.6875 Z M 7.65625 -10.453125 "/>
</symbol>
<symbol overflow="visible" id="glyph0-10">
<path style="stroke:none;" d="M 3.84375 -15.265625 C 3.84375 -15.8125 3.390625 -16.28125 2.828125 -16.28125 C 2.28125 -16.28125 1.8125 -15.828125 1.8125 -15.265625 C 1.8125 -14.71875 2.25 -14.25 2.828125 -14.25 C 3.375 -14.25 3.84375 -14.6875 3.84375 -15.265625 Z M 0.9375 -10.578125 L 0.9375 -9.9375 C 2.328125 -9.9375 2.53125 -9.78125 2.53125 -8.59375 L 2.53125 -1.703125 C 2.53125 -0.765625 2.421875 -0.640625 0.84375 -0.640625 L 0.84375 0 C 1.4375 -0.046875 2.5 -0.046875 3.125 -0.046875 C 3.71875 -0.046875 4.734375 -0.046875 5.296875 0 L 5.296875 -0.640625 C 3.84375 -0.640625 3.796875 -0.796875 3.796875 -1.6875 L 3.796875 -10.859375 Z M 0.9375 -10.578125 "/>
</symbol>
<symbol overflow="visible" id="glyph0-11">
<path style="stroke:none;" d="M 2.75 -4.453125 C 3.21875 -4.09375 4.046875 -3.671875 5.03125 -3.671875 C 6.984375 -3.671875 8.671875 -5.203125 8.671875 -7.265625 C 8.671875 -7.90625 8.46875 -8.890625 7.734375 -9.671875 C 8.421875 -10.40625 9.4375 -10.65625 10.015625 -10.65625 C 10.109375 -10.65625 10.265625 -10.65625 10.390625 -10.578125 C 10.28125 -10.5625 10.0625 -10.453125 10.0625 -10.0625 C 10.0625 -9.734375 10.28125 -9.515625 10.609375 -9.515625 C 10.984375 -9.515625 11.171875 -9.765625 11.171875 -10.09375 C 11.171875 -10.5625 10.796875 -11.046875 10.015625 -11.046875 C 9.015625 -11.046875 8.15625 -10.578125 7.453125 -9.9375 C 6.71875 -10.609375 5.828125 -10.859375 5.03125 -10.859375 C 3.078125 -10.859375 1.390625 -9.3125 1.390625 -7.265625 C 1.390625 -5.84375 2.203125 -4.953125 2.453125 -4.703125 C 1.703125 -3.84375 1.703125 -2.828125 1.703125 -2.703125 C 1.703125 -2.0625 1.953125 -1.109375 2.796875 -0.59375 C 1.515625 -0.265625 0.5 0.71875 0.5 1.953125 C 0.5 3.734375 2.84375 5.0625 5.671875 5.0625 C 8.40625 5.0625 10.859375 3.796875 10.859375 1.9375 C 10.859375 -1.4375 7.1875 -1.4375 5.28125 -1.4375 C 4.703125 -1.4375 3.6875 -1.4375 3.5625 -1.46875 C 2.796875 -1.59375 2.28125 -2.28125 2.28125 -3.140625 C 2.28125 -3.375 2.28125 -3.921875 2.75 -4.453125 Z M 5.03125 -4.09375 C 2.84375 -4.09375 2.84375 -6.765625 2.84375 -7.265625 C 2.84375 -7.75 2.84375 -10.4375 5.03125 -10.4375 C 7.21875 -10.4375 7.21875 -7.75 7.21875 -7.265625 C 7.21875 -6.765625 7.21875 -4.09375 5.03125 -4.09375 Z M 5.671875 4.640625 C 3.203125 4.640625 1.484375 3.328125 1.484375 1.953125 C 1.484375 1.1875 1.90625 0.46875 2.453125 0.078125 C 3.078125 -0.34375 3.328125 -0.34375 5 -0.34375 C 7.03125 -0.34375 9.859375 -0.34375 9.859375 1.953125 C 9.859375 3.328125 8.15625 4.640625 5.671875 4.640625 Z M 5.671875 4.640625 "/>
</symbol>
<symbol overflow="visible" id="glyph0-12">
<path style="stroke:none;" d="M 13.4375 -6.265625 L 12.984375 -6.265625 C 12.78125 -3.8125 12.46875 -0.640625 8.234375 -0.640625 L 5.921875 -0.640625 C 4.9375 -0.640625 4.875 -0.765625 4.875 -1.609375 L 4.875 -15.140625 C 4.875 -16.03125 4.9375 -16.28125 6.8125 -16.28125 L 7.359375 -16.28125 L 7.359375 -16.921875 C 6.34375 -16.875 5.15625 -16.875 4.140625 -16.875 C 3.375 -16.875 1.984375 -16.875 1.265625 -16.921875 L 1.265625 -16.28125 C 2.96875 -16.28125 3.25 -16.28125 3.25 -15.171875 L 3.25 -1.765625 C 3.25 -0.640625 2.96875 -0.640625 1.265625 -0.640625 L 1.265625 0 L 12.84375 0 Z M 13.4375 -6.265625 "/>
</symbol>
<symbol overflow="visible" id="glyph0-13">
<path style="stroke:none;" d="M 8.65625 -8.671875 C 8.171875 -8.671875 7.484375 -8.671875 7.484375 -7.8125 C 7.484375 -7.109375 8.046875 -6.90625 8.375 -6.90625 C 8.546875 -6.90625 9.265625 -6.984375 9.265625 -7.859375 C 9.265625 -9.609375 7.578125 -10.953125 5.671875 -10.953125 C 3.046875 -10.953125 0.8125 -8.53125 0.8125 -5.359375 C 0.8125 -2.0625 3.140625 0.203125 5.671875 0.203125 C 8.75 0.203125 9.515625 -2.65625 9.515625 -2.921875 C 9.515625 -3.015625 9.484375 -3.09375 9.3125 -3.09375 C 9.140625 -3.09375 9.125 -3.078125 9.015625 -2.75 C 8.375 -0.75 6.96875 -0.25 5.890625 -0.25 C 4.3125 -0.25 2.40625 -1.703125 2.40625 -5.375 C 2.40625 -9.140625 4.234375 -10.5 5.703125 -10.5 C 6.671875 -10.5 8.109375 -10.03125 8.65625 -8.671875 Z M 8.65625 -8.671875 "/>
</symbol>
<symbol overflow="visible" id="glyph0-14">
<path style="stroke:none;" d="M 8.921875 -6.421875 C 8.921875 -8.046875 8.921875 -8.921875 7.875 -9.890625 C 6.96875 -10.703125 5.890625 -10.953125 5.0625 -10.953125 C 3.09375 -10.953125 1.6875 -9.421875 1.6875 -7.78125 C 1.6875 -6.859375 2.421875 -6.8125 2.578125 -6.8125 C 2.90625 -6.8125 3.46875 -7.015625 3.46875 -7.703125 C 3.46875 -8.328125 3 -8.59375 2.578125 -8.59375 C 2.484375 -8.59375 2.359375 -8.578125 2.28125 -8.546875 C 2.796875 -10.109375 4.140625 -10.5625 5 -10.5625 C 6.25 -10.5625 7.609375 -9.46875 7.609375 -7.390625 L 7.609375 -6.296875 C 6.140625 -6.25 4.390625 -6.046875 3 -5.296875 C 1.4375 -4.4375 0.984375 -3.203125 0.984375 -2.25 C 0.984375 -0.34375 3.21875 0.203125 4.53125 0.203125 C 5.890625 0.203125 7.15625 -0.5625 7.703125 -1.984375 C 7.75 -0.890625 8.453125 0.09375 9.546875 0.09375 C 10.0625 0.09375 11.375 -0.25 11.375 -2.203125 L 11.375 -3.59375 L 10.921875 -3.59375 L 10.921875 -2.1875 C 10.921875 -0.671875 10.265625 -0.46875 9.9375 -0.46875 C 8.921875 -0.46875 8.921875 -1.765625 8.921875 -2.84375 Z M 7.609375 -3.4375 C 7.609375 -1.28125 6.078125 -0.203125 4.703125 -0.203125 C 3.46875 -0.203125 2.5 -1.109375 2.5 -2.25 C 2.5 -3 2.828125 -4.3125 4.265625 -5.109375 C 5.453125 -5.78125 6.8125 -5.875 7.609375 -5.921875 Z M 7.609375 -3.4375 "/>
</symbol>
<symbol overflow="visible" id="glyph0-15">
<path style="stroke:none;" d="M 3.796875 -17.203125 L 0.84375 -16.921875 L 0.84375 -16.28125 C 2.296875 -16.28125 2.53125 -16.125 2.53125 -14.9375 L 2.53125 -1.703125 C 2.53125 -0.765625 2.421875 -0.640625 0.84375 -0.640625 L 0.84375 0 C 1.4375 -0.046875 2.53125 -0.046875 3.140625 -0.046875 C 3.796875 -0.046875 4.875 -0.046875 5.484375 0 L 5.484375 -0.640625 C 3.890625 -0.640625 3.796875 -0.75 3.796875 -1.703125 Z M 3.796875 -17.203125 "/>
</symbol>
<symbol overflow="visible" id="glyph0-16">
<path style="stroke:none;" d="M 10.859375 -16.828125 C 10.859375 -17.265625 10.828125 -17.296875 10.6875 -17.296875 C 10.53125 -17.296875 10.484375 -17.203125 10.390625 -16.96875 L 9.640625 -15.34375 C 8.703125 -16.703125 7.265625 -17.328125 5.703125 -17.328125 C 3.171875 -17.328125 1.140625 -15.3125 1.140625 -12.78125 C 1.140625 -12.015625 1.3125 -10.921875 2.15625 -9.890625 C 3.078125 -8.75 3.9375 -8.546875 5.921875 -8.03125 C 6.671875 -7.828125 7.90625 -7.515625 8.15625 -7.40625 C 9.5625 -6.8125 10.3125 -5.328125 10.3125 -3.9375 C 10.3125 -2.15625 9.046875 -0.25 6.890625 -0.25 C 4.234375 -0.25 1.765625 -1.734375 1.59375 -5.203125 C 1.5625 -5.59375 1.53125 -5.625 1.359375 -5.625 C 1.171875 -5.625 1.140625 -5.59375 1.140625 -5.109375 L 1.140625 -0.09375 C 1.140625 0.34375 1.171875 0.375 1.3125 0.375 C 1.484375 0.375 1.53125 0.25 1.890625 -0.515625 C 1.90625 -0.59375 1.90625 -0.640625 2.375 -1.59375 C 3.625 0.046875 5.703125 0.390625 6.890625 0.390625 C 9.59375 0.390625 11.5 -1.859375 11.5 -4.484375 C 11.5 -5.78125 11.03125 -6.765625 10.75 -7.21875 C 9.71875 -8.796875 8.59375 -9.09375 7.40625 -9.390625 C 7.234375 -9.46875 7.1875 -9.46875 5.796875 -9.8125 C 4.453125 -10.15625 3.890625 -10.328125 3.265625 -11 C 2.578125 -11.765625 2.328125 -12.5625 2.328125 -13.359375 C 2.328125 -14.96875 3.625 -16.734375 5.71875 -16.734375 C 8.34375 -16.734375 9.984375 -14.875 10.359375 -11.765625 C 10.4375 -11.328125 10.453125 -11.296875 10.625 -11.296875 C 10.859375 -11.296875 10.859375 -11.375 10.859375 -11.796875 Z M 10.859375 -16.828125 "/>
</symbol>
<symbol overflow="visible" id="glyph0-17">
<path style="stroke:none;" d="M 3.734375 -10.015625 L 7.21875 -10.015625 L 7.21875 -10.65625 L 3.734375 -10.65625 L 3.734375 -15.234375 L 3.296875 -15.234375 C 3.25 -12.6875 2.375 -10.453125 0.265625 -10.40625 L 0.265625 -10.015625 L 2.421875 -10.015625 L 2.421875 -3.046875 C 2.421875 -2.578125 2.421875 0.203125 5.296875 0.203125 C 6.765625 0.203125 7.609375 -1.234375 7.609375 -3.078125 L 7.609375 -4.484375 L 7.15625 -4.484375 L 7.15625 -3.09375 C 7.15625 -1.390625 6.5 -0.25 5.453125 -0.25 C 4.734375 -0.25 3.734375 -0.75 3.734375 -3 Z M 3.734375 -10.015625 "/>
</symbol>
<symbol overflow="visible" id="glyph0-18">
<path style="stroke:none;" d="M 6.59375 -15.828125 C 6.59375 -16.359375 6.5625 -16.375 6.21875 -16.375 C 5.25 -15.21875 3.796875 -14.84375 2.40625 -14.796875 C 2.328125 -14.796875 2.203125 -14.796875 2.1875 -14.75 C 2.15625 -14.6875 2.15625 -14.640625 2.15625 -14.125 C 2.921875 -14.125 4.21875 -14.28125 5.203125 -14.875 L 5.203125 -1.8125 C 5.203125 -0.9375 5.15625 -0.640625 3.015625 -0.640625 L 2.28125 -0.640625 L 2.28125 0 C 3.46875 -0.03125 4.703125 -0.046875 5.890625 -0.046875 C 7.09375 -0.046875 8.328125 -0.03125 9.515625 0 L 9.515625 -0.640625 L 8.765625 -0.640625 C 6.640625 -0.640625 6.59375 -0.921875 6.59375 -1.8125 Z M 6.59375 -15.828125 "/>
</symbol>
<symbol overflow="visible" id="glyph0-19">
<path style="stroke:none;" d="M 10.328125 -3.84375 L 9.890625 -3.84375 C 9.640625 -2.078125 9.4375 -1.78125 9.34375 -1.640625 C 9.21875 -1.4375 7.4375 -1.4375 7.09375 -1.4375 L 2.328125 -1.4375 C 3.21875 -2.40625 4.953125 -4.15625 7.0625 -6.1875 C 8.578125 -7.625 10.328125 -9.3125 10.328125 -11.765625 C 10.328125 -14.6875 8 -16.375 5.40625 -16.375 C 2.671875 -16.375 1.015625 -13.984375 1.015625 -11.75 C 1.015625 -10.78125 1.734375 -10.65625 2.03125 -10.65625 C 2.28125 -10.65625 3.015625 -10.796875 3.015625 -11.671875 C 3.015625 -12.4375 2.375 -12.65625 2.03125 -12.65625 C 1.890625 -12.65625 1.734375 -12.640625 1.640625 -12.59375 C 2.109375 -14.6875 3.546875 -15.734375 5.0625 -15.734375 C 7.21875 -15.734375 8.625 -14.03125 8.625 -11.765625 C 8.625 -9.609375 7.359375 -7.75 5.953125 -6.140625 L 1.015625 -0.5625 L 1.015625 0 L 9.734375 0 Z M 10.328125 -3.84375 "/>
</symbol>
<symbol overflow="visible" id="glyph0-20">
<path style="stroke:none;" d="M 15.046875 -6.265625 L 14.59375 -6.265625 C 14.046875 -2.625 13.734375 -0.640625 9.375 -0.640625 L 5.921875 -0.640625 C 4.9375 -0.640625 4.875 -0.765625 4.875 -1.609375 L 4.875 -8.453125 L 7.21875 -8.453125 C 9.546875 -8.453125 9.765625 -7.609375 9.765625 -5.546875 L 10.203125 -5.546875 L 10.203125 -12 L 9.765625 -12 C 9.765625 -9.9375 9.546875 -9.09375 7.21875 -9.09375 L 4.875 -9.09375 L 4.875 -15.265625 C 4.875 -16.109375 4.9375 -16.234375 5.921875 -16.234375 L 9.3125 -16.234375 C 13.15625 -16.234375 13.609375 -14.6875 13.953125 -11.40625 L 14.390625 -11.40625 L 13.796875 -16.875 L 1.265625 -16.875 L 1.265625 -16.234375 C 2.96875 -16.234375 3.25 -16.234375 3.25 -15.109375 L 3.25 -1.765625 C 3.25 -0.640625 2.96875 -0.640625 1.265625 -0.640625 L 1.265625 0 L 14.15625 0 Z M 15.046875 -6.265625 "/>
</symbol>
<symbol overflow="visible" id="glyph0-21">
<path style="stroke:none;" d="M 3.71875 -5.84375 C 3.71875 -8.234375 4.734375 -10.453125 6.59375 -10.453125 C 6.765625 -10.453125 6.9375 -10.4375 7.109375 -10.359375 C 7.109375 -10.359375 6.5625 -10.1875 6.5625 -9.546875 C 6.5625 -8.953125 7.03125 -8.703125 7.40625 -8.703125 C 7.703125 -8.703125 8.25 -8.875 8.25 -9.5625 C 8.25 -10.359375 7.453125 -10.859375 6.609375 -10.859375 C 4.734375 -10.859375 3.921875 -9.015625 3.671875 -8.15625 L 3.640625 -8.15625 L 3.640625 -10.859375 L 0.765625 -10.578125 L 0.765625 -9.9375 C 2.234375 -9.9375 2.453125 -9.78125 2.453125 -8.59375 L 2.453125 -1.703125 C 2.453125 -0.765625 2.359375 -0.640625 0.765625 -0.640625 L 0.765625 0 C 1.359375 -0.046875 2.5 -0.046875 3.140625 -0.046875 C 3.859375 -0.046875 5.125 -0.046875 5.796875 0 L 5.796875 -0.640625 C 4.015625 -0.640625 3.71875 -0.640625 3.71875 -1.765625 Z M 3.71875 -5.84375 "/>
</symbol>
<symbol overflow="visible" id="glyph0-22">
<path style="stroke:none;" d="M 9.671875 -8.46875 C 10.28125 -9.984375 11.40625 -10.015625 11.75 -10.015625 L 11.75 -10.65625 C 11.28125 -10.625 10.65625 -10.609375 10.1875 -10.609375 C 9.671875 -10.609375 8.84375 -10.609375 8.34375 -10.65625 L 8.34375 -10.015625 C 9.296875 -9.9375 9.3125 -9.25 9.3125 -9.046875 C 9.3125 -8.796875 9.265625 -8.671875 9.140625 -8.375 L 6.4375 -1.6875 L 3.5 -8.921875 C 3.375 -9.21875 3.375 -9.390625 3.375 -9.421875 C 3.375 -9.96875 3.9375 -10.015625 4.53125 -10.015625 L 4.53125 -10.65625 C 3.9375 -10.609375 2.875 -10.609375 2.25 -10.609375 C 1.59375 -10.609375 0.796875 -10.609375 0.25 -10.65625 L 0.25 -10.015625 C 1.59375 -10.015625 1.734375 -9.890625 2.0625 -9.09375 L 5.75 0 C 4.640625 2.921875 3.984375 4.640625 2.421875 4.640625 C 2.15625 4.640625 1.53125 4.5625 1.09375 4.109375 C 1.65625 4.0625 1.90625 3.71875 1.90625 3.296875 C 1.90625 2.875 1.609375 2.5 1.109375 2.5 C 0.5625 2.5 0.296875 2.875 0.296875 3.328125 C 0.296875 4.3125 1.3125 5.03125 2.421875 5.03125 C 3.859375 5.03125 4.765625 3.640625 5.25 2.40625 Z M 9.671875 -8.46875 "/>
</symbol>
<symbol overflow="visible" id="glyph0-23">
<path style="stroke:none;" d="M 2.625 -8.546875 C 2.625 -14.46875 5.40625 -15.8125 7.015625 -15.8125 C 7.53125 -15.8125 8.796875 -15.71875 9.296875 -14.75 C 8.890625 -14.75 8.15625 -14.75 8.15625 -13.875 C 8.15625 -13.203125 8.703125 -12.984375 9.046875 -12.984375 C 9.265625 -12.984375 9.9375 -13.078125 9.9375 -13.921875 C 9.9375 -15.484375 8.703125 -16.375 6.984375 -16.375 C 4.046875 -16.375 0.9375 -13.3125 0.9375 -7.828125 C 0.9375 -1.09375 3.734375 0.390625 5.71875 0.390625 C 8.125 0.390625 10.40625 -1.765625 10.40625 -5.078125 C 10.40625 -8.171875 8.40625 -10.4375 5.875 -10.4375 C 4.359375 -10.4375 3.25 -9.4375 2.625 -7.703125 Z M 5.71875 -0.203125 C 2.671875 -0.203125 2.671875 -4.765625 2.671875 -5.671875 C 2.671875 -7.453125 3.515625 -10.03125 5.828125 -10.03125 C 6.25 -10.03125 7.453125 -10.03125 8.28125 -8.328125 C 8.71875 -7.359375 8.71875 -6.34375 8.71875 -5.109375 C 8.71875 -3.765625 8.71875 -2.78125 8.203125 -1.78125 C 7.65625 -0.765625 6.859375 -0.203125 5.71875 -0.203125 Z M 5.71875 -0.203125 "/>
</symbol>
<symbol overflow="visible" id="glyph0-24">
<path style="stroke:none;" d="M 2.828125 -14.5 C 3.078125 -14.390625 4.09375 -14.078125 5.125 -14.078125 C 7.4375 -14.078125 8.703125 -15.3125 9.421875 -16.03125 C 9.421875 -16.234375 9.421875 -16.359375 9.265625 -16.359375 C 9.25 -16.359375 9.1875 -16.359375 9 -16.25 C 8.125 -15.890625 7.109375 -15.59375 5.875 -15.59375 C 5.125 -15.59375 4.015625 -15.6875 2.796875 -16.234375 C 2.53125 -16.359375 2.484375 -16.359375 2.453125 -16.359375 C 2.328125 -16.359375 2.296875 -16.328125 2.296875 -15.828125 L 2.296875 -8.65625 C 2.296875 -8.203125 2.296875 -8.078125 2.546875 -8.078125 C 2.671875 -8.078125 2.71875 -8.125 2.84375 -8.296875 C 3.640625 -9.421875 4.734375 -9.890625 5.96875 -9.890625 C 6.84375 -9.890625 8.703125 -9.34375 8.703125 -5.109375 C 8.703125 -4.3125 8.703125 -2.875 7.953125 -1.734375 C 7.328125 -0.71875 6.375 -0.203125 5.296875 -0.203125 C 3.671875 -0.203125 2 -1.34375 1.5625 -3.25 C 1.65625 -3.21875 1.859375 -3.171875 1.953125 -3.171875 C 2.28125 -3.171875 2.90625 -3.34375 2.90625 -4.109375 C 2.90625 -4.78125 2.421875 -5.0625 1.953125 -5.0625 C 1.390625 -5.0625 1.015625 -4.703125 1.015625 -4.015625 C 1.015625 -1.859375 2.71875 0.390625 5.359375 0.390625 C 7.90625 0.390625 10.328125 -1.8125 10.328125 -5 C 10.328125 -7.984375 8.40625 -10.28125 6 -10.28125 C 4.734375 -10.28125 3.671875 -9.8125 2.828125 -8.921875 Z M 2.828125 -14.5 "/>
</symbol>
<symbol overflow="visible" id="glyph0-25">
<path style="stroke:none;" d="M 8.328125 -16.03125 C 8.328125 -16.546875 8.296875 -16.578125 7.859375 -16.578125 L 0.5 -4.859375 L 0.5 -4.21875 L 6.890625 -4.21875 L 6.890625 -1.78125 C 6.890625 -0.890625 6.84375 -0.640625 5.109375 -0.640625 L 4.640625 -0.640625 L 4.640625 0 C 5.421875 -0.046875 6.765625 -0.046875 7.609375 -0.046875 C 8.453125 -0.046875 9.78125 -0.046875 10.578125 0 L 10.578125 -0.640625 L 10.109375 -0.640625 C 8.375 -0.640625 8.328125 -0.890625 8.328125 -1.78125 L 8.328125 -4.21875 L 10.859375 -4.21875 L 10.859375 -4.859375 L 8.328125 -4.859375 Z M 6.96875 -14.390625 L 6.96875 -4.859375 L 0.984375 -4.859375 Z M 6.96875 -14.390625 "/>
</symbol>
<symbol overflow="visible" id="glyph0-26">
<path style="stroke:none;" d="M 5.484375 -8.421875 C 7.6875 -8.421875 8.65625 -6.515625 8.65625 -4.3125 C 8.65625 -1.34375 7.0625 -0.203125 5.625 -0.203125 C 4.3125 -0.203125 2.1875 -0.84375 1.515625 -2.75 C 1.640625 -2.703125 1.765625 -2.703125 1.890625 -2.703125 C 2.484375 -2.703125 2.921875 -3.09375 2.921875 -3.734375 C 2.921875 -4.453125 2.375 -4.78125 1.890625 -4.78125 C 1.46875 -4.78125 0.8125 -4.578125 0.8125 -3.671875 C 0.8125 -1.390625 3.046875 0.390625 5.671875 0.390625 C 8.421875 0.390625 10.53125 -1.765625 10.53125 -4.28125 C 10.53125 -6.6875 8.546875 -8.421875 6.1875 -8.703125 C 8.078125 -9.09375 9.890625 -10.78125 9.890625 -13.03125 C 9.890625 -14.96875 7.9375 -16.375 5.703125 -16.375 C 3.4375 -16.375 1.46875 -15 1.46875 -13.015625 C 1.46875 -12.140625 2.109375 -12 2.421875 -12 C 2.953125 -12 3.390625 -12.3125 3.390625 -12.953125 C 3.390625 -13.609375 2.953125 -13.921875 2.421875 -13.921875 C 2.328125 -13.921875 2.203125 -13.921875 2.109375 -13.875 C 2.828125 -15.515625 4.78125 -15.8125 5.65625 -15.8125 C 6.515625 -15.8125 8.15625 -15.390625 8.15625 -13.015625 C 8.15625 -12.3125 8.046875 -11.078125 7.21875 -9.984375 C 6.46875 -9.015625 5.625 -8.96875 4.8125 -8.890625 C 4.6875 -8.890625 4.109375 -8.84375 4.015625 -8.84375 C 3.84375 -8.828125 3.734375 -8.796875 3.734375 -8.625 C 3.734375 -8.453125 3.765625 -8.421875 4.265625 -8.421875 Z M 5.484375 -8.421875 "/>
</symbol>
</g>
</defs>
<g id="surface1">
<path style="fill-rule:nonzero;fill:rgb(89.99939%,89.99939%,100%);fill-opacity:1;stroke-width:0.79701;stroke-linecap:butt;stroke-linejoin:miter;stroke:rgb(29.998779%,29.998779%,100%);stroke-opacity:1;stroke-miterlimit:10;" d="M 519.058594 747.209313 L 277.960938 747.209313 C 275.761719 747.209313 273.976563 745.424156 273.976563 743.221031 L 273.976563 253.053063 C 273.976563 250.853844 275.761719 249.068688 277.960938 249.068688 L 519.058594 249.068688 C 521.261719 249.068688 523.046875 250.853844 523.046875 253.053063 L 523.046875 743.221031 C 523.046875 745.424156 521.261719 747.209313 519.058594 747.209313 Z M 519.058594 747.209313 " transform="matrix(1,0,0,-1,0,996.264)"/>
<g style="fill:rgb(0%,0%,0%);fill-opacity:1;">
  <use xlink:href="#glyph0-1" x="381.639" y="506.599"/>
  <use xlink:href="#glyph0-2" x="398.186868" y="506.599"/>
</g>
<path style="fill-rule:nonzero;fill:rgb(89.99939%,100%,89.99939%);fill-opacity:1;stroke-width:0.79701;stroke-linecap:butt;stroke-linejoin:miter;stroke:rgb(29.998779%,100%,29.998779%);stroke-opacity:1;stroke-miterlimit:10;" d="M 697.394531 747.209313 L 896.648438 747.209313 L 896.648438 846.834313 L 697.394531 846.834313 Z M 697.394531 747.209313 " transform="matrix(1,0,0,-1,0,996.264)"/>
<g style="fill:rgb(0%,0%,0%);fill-opacity:1;">
  <use xlink:href="#glyph0-3" x="777.518" y="207.859"/>
  <use xlink:href="#glyph0-4" x="785.638254" y="207.859"/>
  <use xlink:href="#glyph0-5" x="798.301983" y="207.859"/>
  <use xlink:href="#glyph0-6" x="805.138266" y="207.859"/>
</g>
<path style="fill-rule:nonzero;fill:rgb(97.499084%,89.99939%,92.498779%);fill-opacity:1;stroke-width:0.79701;stroke-linecap:butt;stroke-linejoin:miter;stroke:rgb(82.499695%,29.998779%,47.499084%);stroke-opacity:1;stroke-miterlimit:10;" d="M 697.394531 547.9515 L 896.648438 547.9515 L 896.648438 647.580406 L 697.394531 647.580406 Z M 697.394531 547.9515 " transform="matrix(1,0,0,-1,0,996.264)"/>
<g style="fill:rgb(0%,0%,0%);fill-opacity:1;">
  <use xlink:href="#glyph0-7" x="763.655" y="404.562"/>
  <use xlink:href="#glyph0-8" x="781.169565" y="404.562"/>
  <use xlink:href="#glyph0-9" x="791.243042" y="404.562"/>
  <use xlink:href="#glyph0-10" x="800.151526" y="404.562"/>
  <use xlink:href="#glyph0-11" x="806.338386" y="404.562"/>
  <use xlink:href="#glyph0-4" x="817.70575" y="404.562"/>
</g>
<path style="fill-rule:nonzero;fill:rgb(100%,94.999695%,89.99939%);fill-opacity:1;stroke-width:0.79701;stroke-linecap:butt;stroke-linejoin:miter;stroke:rgb(100%,64.99939%,29.998779%);stroke-opacity:1;stroke-miterlimit:10;" d="M 697.394531 348.697594 L 896.648438 348.697594 L 896.648438 448.3265 L 697.394531 448.3265 Z M 697.394531 348.697594 " transform="matrix(1,0,0,-1,0,996.264)"/>
<g style="fill:rgb(0%,0%,0%);fill-opacity:1;">
  <use xlink:href="#glyph0-12" x="765.015" y="606.365"/>
  <use xlink:href="#glyph0-6" x="779.29237" y="606.365"/>
</g>
<g style="fill:rgb(0%,0%,0%);fill-opacity:1;">
  <use xlink:href="#glyph0-13" x="791.304198" y="606.365"/>
  <use xlink:href="#glyph0-14" x="801.377676" y="606.365"/>
  <use xlink:href="#glyph0-15" x="812.74504" y="606.365"/>
  <use xlink:href="#glyph0-8" x="818.9319" y="606.365"/>
</g>
<path style="fill-rule:nonzero;fill:rgb(100%,89.99939%,89.99939%);fill-opacity:1;stroke-width:0.79701;stroke-linecap:butt;stroke-linejoin:miter;stroke:rgb(100%,29.998779%,29.998779%);stroke-opacity:1;stroke-miterlimit:10;" d="M 697.394531 149.439781 L 896.648438 149.439781 L 896.648438 249.068688 L 697.394531 249.068688 Z M 697.394531 149.439781 " transform="matrix(1,0,0,-1,0,996.264)"/>
<g style="fill:rgb(0%,0%,0%);fill-opacity:1;">
  <use xlink:href="#glyph0-16" x="757.303" y="803.068"/>
  <use xlink:href="#glyph0-8" x="769.966729" y="803.068"/>
  <use xlink:href="#glyph0-17" x="780.040207" y="803.068"/>
  <use xlink:href="#glyph0-17" x="788.817319" y="803.068"/>
  <use xlink:href="#glyph0-10" x="797.594431" y="803.068"/>
  <use xlink:href="#glyph0-4" x="803.781291" y="803.068"/>
  <use xlink:href="#glyph0-11" x="816.445021" y="803.068"/>
  <use xlink:href="#glyph0-9" x="827.812385" y="803.068"/>
</g>
<path style="fill-rule:nonzero;fill:rgb(89.99939%,94.999695%,94.999695%);fill-opacity:1;stroke-width:0.79701;stroke-linecap:butt;stroke-linejoin:miter;stroke:rgb(29.998779%,64.99939%,64.99939%);stroke-opacity:1;stroke-miterlimit:10;" d="M 1268.261719 788.053063 L 1122.804688 788.053063 C 1121.703125 788.053063 1120.8125 787.162438 1120.8125 786.060875 L 1120.8125 540.978844 C 1120.8125 539.877281 1121.703125 538.986656 1122.804688 538.986656 L 1268.261719 538.986656 C 1269.359375 538.986656 1270.253906 539.877281 1270.253906 540.978844 L 1270.253906 786.060875 C 1270.253906 787.162438 1269.359375 788.053063 1268.261719 788.053063 Z M 1268.261719 788.053063 " transform="matrix(1,0,0,-1,0,996.264)"/>
<g style="fill:rgb(0%,0%,0%);fill-opacity:1;">
  <use xlink:href="#glyph0-16" x="1150.189" y="341.219"/>
  <use xlink:href="#glyph0-8" x="1162.852729" y="341.219"/>
  <use xlink:href="#glyph0-13" x="1172.926207" y="341.219"/>
  <use xlink:href="#glyph0-17" x="1182.999684" y="341.219"/>
  <use xlink:href="#glyph0-10" x="1191.776796" y="341.219"/>
  <use xlink:href="#glyph0-6" x="1197.963657" y="341.219"/>
  <use xlink:href="#glyph0-4" x="1209.331021" y="341.219"/>
</g>
<g style="fill:rgb(0%,0%,0%);fill-opacity:1;">
  <use xlink:href="#glyph0-18" x="1229.480454" y="341.219"/>
</g>
<path style="fill-rule:nonzero;fill:rgb(89.99939%,94.999695%,94.999695%);fill-opacity:1;stroke-width:0.79701;stroke-linecap:butt;stroke-linejoin:miter;stroke:rgb(29.998779%,64.99939%,64.99939%);stroke-opacity:1;stroke-miterlimit:10;" d="M 1268.261719 456.29525 L 1122.804688 456.29525 C 1121.703125 456.29525 1120.8125 455.404625 1120.8125 454.303063 L 1120.8125 209.217125 C 1120.8125 208.119469 1121.703125 207.224938 1122.804688 207.224938 L 1268.261719 207.224938 C 1269.359375 207.224938 1270.253906 208.119469 1270.253906 209.217125 L 1270.253906 454.303063 C 1270.253906 455.404625 1269.359375 456.29525 1268.261719 456.29525 Z M 1268.261719 456.29525 " transform="matrix(1,0,0,-1,0,996.264)"/>
<g style="fill:rgb(0%,0%,0%);fill-opacity:1;">
  <use xlink:href="#glyph0-16" x="1150.189" y="672.975"/>
  <use xlink:href="#glyph0-8" x="1162.852729" y="672.975"/>
  <use xlink:href="#glyph0-13" x="1172.926207" y="672.975"/>
  <use xlink:href="#glyph0-17" x="1182.999684" y="672.975"/>
  <use xlink:href="#glyph0-10" x="1191.776796" y="672.975"/>
  <use xlink:href="#glyph0-6" x="1197.963657" y="672.975"/>
  <use xlink:href="#glyph0-4" x="1209.331021" y="672.975"/>
</g>
<g style="fill:rgb(0%,0%,0%);fill-opacity:1;">
  <use xlink:href="#glyph0-19" x="1229.480454" y="672.975"/>
</g>
<path style="fill-rule:nonzero;fill:rgb(89.99939%,89.99939%,89.99939%);fill-opacity:1;stroke-width:0.79701;stroke-linecap:butt;stroke-linejoin:miter;stroke:rgb(64.99939%,64.99939%,64.99939%);stroke-opacity:1;stroke-miterlimit:10;" d="M 1544.230469 117.560875 L 1643.855469 117.560875 L 1643.855469 167.373375 L 1544.230469 167.373375 Z M 1544.230469 117.560875 " transform="matrix(1,0,0,-1,0,996.264)"/>
<g style="fill:rgb(0%,0%,0%);fill-opacity:1;">
  <use xlink:href="#glyph0-20" x="1556.018" y="859.855"/>
  <use xlink:href="#glyph0-4" x="1571.589256" y="859.855"/>
</g>
<g style="fill:rgb(0%,0%,0%);fill-opacity:1;">
  <use xlink:href="#glyph0-17" x="1583.608521" y="859.855"/>
  <use xlink:href="#glyph0-21" x="1592.385633" y="859.855"/>
  <use xlink:href="#glyph0-22" x="1601.162745" y="859.855"/>
</g>
<g style="fill:rgb(0%,0%,0%);fill-opacity:1;">
  <use xlink:href="#glyph0-23" x="1620.662757" y="859.855"/>
</g>
<path style="fill-rule:nonzero;fill:rgb(89.99939%,89.99939%,89.99939%);fill-opacity:1;stroke-width:0.79701;stroke-linecap:butt;stroke-linejoin:miter;stroke:rgb(64.99939%,64.99939%,64.99939%);stroke-opacity:1;stroke-miterlimit:10;" d="M 1544.230469 260.029625 L 1643.855469 260.029625 L 1643.855469 309.842125 L 1544.230469 309.842125 Z M 1544.230469 260.029625 " transform="matrix(1,0,0,-1,0,996.264)"/>
<g style="fill:rgb(0%,0%,0%);fill-opacity:1;">
  <use xlink:href="#glyph0-20" x="1556.018" y="717.389"/>
  <use xlink:href="#glyph0-4" x="1571.589256" y="717.389"/>
</g>
<g style="fill:rgb(0%,0%,0%);fill-opacity:1;">
  <use xlink:href="#glyph0-17" x="1583.608521" y="717.389"/>
  <use xlink:href="#glyph0-21" x="1592.385633" y="717.389"/>
  <use xlink:href="#glyph0-22" x="1601.162745" y="717.389"/>
</g>
<g style="fill:rgb(0%,0%,0%);fill-opacity:1;">
  <use xlink:href="#glyph0-24" x="1620.662757" y="717.389"/>
</g>
<path style="fill-rule:nonzero;fill:rgb(89.99939%,89.99939%,89.99939%);fill-opacity:1;stroke-width:0.79701;stroke-linecap:butt;stroke-linejoin:miter;stroke:rgb(64.99939%,64.99939%,64.99939%);stroke-opacity:1;stroke-miterlimit:10;" d="M 1544.230469 402.494469 L 1643.855469 402.494469 L 1643.855469 452.310875 L 1544.230469 452.310875 Z M 1544.230469 402.494469 " transform="matrix(1,0,0,-1,0,996.264)"/>
<g style="fill:rgb(0%,0%,0%);fill-opacity:1;">
  <use xlink:href="#glyph0-20" x="1556.018" y="574.923"/>
  <use xlink:href="#glyph0-4" x="1571.589256" y="574.923"/>
</g>
<g style="fill:rgb(0%,0%,0%);fill-opacity:1;">
  <use xlink:href="#glyph0-17" x="1583.608521" y="574.923"/>
  <use xlink:href="#glyph0-21" x="1592.385633" y="574.923"/>
  <use xlink:href="#glyph0-22" x="1601.162745" y="574.923"/>
</g>
<g style="fill:rgb(0%,0%,0%);fill-opacity:1;">
  <use xlink:href="#glyph0-25" x="1620.662757" y="574.923"/>
</g>
<path style="fill-rule:nonzero;fill:rgb(89.99939%,89.99939%,89.99939%);fill-opacity:1;stroke-width:0.79701;stroke-linecap:butt;stroke-linejoin:miter;stroke:rgb(64.99939%,64.99939%,64.99939%);stroke-opacity:1;stroke-miterlimit:10;" d="M 1544.230469 543.967125 L 1643.855469 543.967125 L 1643.855469 593.779625 L 1544.230469 593.779625 Z M 1544.230469 543.967125 " transform="matrix(1,0,0,-1,0,996.264)"/>
<g style="fill:rgb(0%,0%,0%);fill-opacity:1;">
  <use xlink:href="#glyph0-20" x="1556.018" y="433.454"/>
  <use xlink:href="#glyph0-4" x="1571.589256" y="433.454"/>
</g>
<g style="fill:rgb(0%,0%,0%);fill-opacity:1;">
  <use xlink:href="#glyph0-17" x="1583.608521" y="433.454"/>
  <use xlink:href="#glyph0-21" x="1592.385633" y="433.454"/>
  <use xlink:href="#glyph0-22" x="1601.162745" y="433.454"/>
</g>
<g style="fill:rgb(0%,0%,0%);fill-opacity:1;">
  <use xlink:href="#glyph0-26" x="1620.662757" y="433.454"/>
</g>
<path style="fill-rule:nonzero;fill:rgb(89.99939%,89.99939%,89.99939%);fill-opacity:1;stroke-width:0.79701;stroke-linecap:butt;stroke-linejoin:miter;stroke:rgb(64.99939%,64.99939%,64.99939%);stroke-opacity:1;stroke-miterlimit:10;" d="M 1544.230469 686.435875 L 1643.855469 686.435875 L 1643.855469 736.248375 L 1544.230469 736.248375 Z M 1544.230469 686.435875 " transform="matrix(1,0,0,-1,0,996.264)"/>
<g style="fill:rgb(0%,0%,0%);fill-opacity:1;">
  <use xlink:href="#glyph0-20" x="1556.018" y="290.988"/>
  <use xlink:href="#glyph0-4" x="1571.589256" y="290.988"/>
</g>
<g style="fill:rgb(0%,0%,0%);fill-opacity:1;">
  <use xlink:href="#glyph0-17" x="1583.608521" y="290.988"/>
  <use xlink:href="#glyph0-21" x="1592.385633" y="290.988"/>
  <use xlink:href="#glyph0-22" x="1601.162745" y="290.988"/>
</g>
<g style="fill:rgb(0%,0%,0%);fill-opacity:1;">
  <use xlink:href="#glyph0-19" x="1620.662757" y="290.988"/>
</g>
<path style="fill-rule:nonzero;fill:rgb(89.99939%,89.99939%,89.99939%);fill-opacity:1;stroke-width:0.79701;stroke-linecap:butt;stroke-linejoin:miter;stroke:rgb(64.99939%,64.99939%,64.99939%);stroke-opacity:1;stroke-miterlimit:10;" d="M 1544.230469 828.900719 L 1643.855469 828.900719 L 1643.855469 878.717125 L 1544.230469 878.717125 Z M 1544.230469 828.900719 " transform="matrix(1,0,0,-1,0,996.264)"/>
<g style="fill:rgb(0%,0%,0%);fill-opacity:1;">
  <use xlink:href="#glyph0-20" x="1556.018" y="148.522"/>
  <use xlink:href="#glyph0-4" x="1571.589256" y="148.522"/>
</g>
<g style="fill:rgb(0%,0%,0%);fill-opacity:1;">
  <use xlink:href="#glyph0-17" x="1583.608521" y="148.522"/>
  <use xlink:href="#glyph0-21" x="1592.385633" y="148.522"/>
  <use xlink:href="#glyph0-22" x="1601.162745" y="148.522"/>
</g>
<g style="fill:rgb(0%,0%,0%);fill-opacity:1;">
  <use xlink:href="#glyph0-18" x="1620.662757" y="148.522"/>
</g>
<path style="fill:none;stroke-width:0.79701;stroke-linecap:butt;stroke-linejoin:miter;stroke:rgb(0%,0%,0%);stroke-opacity:1;stroke-miterlimit:10;" d="M 523.800781 498.748375 L 696.996094 797.021813 " transform="matrix(1,0,0,-1,0,996.264)"/>
<path style="fill:none;stroke-width:0.6376;stroke-linecap:round;stroke-linejoin:round;stroke:rgb(0%,0%,0%);stroke-opacity:1;stroke-miterlimit:10;" d="M -1.553598 2.072194 C -1.422702 1.294451 -0.000240065 0.128356 0.389235 0.00217329 C 0.0000928855 -0.128931 -1.423623 -1.29444 -1.555354 -2.071099 " transform="matrix(-0.50214,0.86475,0.86475,0.50214,523.79904,497.51388)"/>
<path style="fill:none;stroke-width:0.79701;stroke-linecap:butt;stroke-linejoin:miter;stroke:rgb(0%,0%,0%);stroke-opacity:1;stroke-miterlimit:10;" d="M 524.058594 498.490563 L 696.996094 597.767906 " transform="matrix(1,0,0,-1,0,996.264)"/>
<path style="fill:none;stroke-width:0.6376;stroke-linecap:round;stroke-linejoin:round;stroke:rgb(0%,0%,0%);stroke-opacity:1;stroke-miterlimit:10;" d="M -1.5548 2.072658 C -1.42454 1.295214 0.00107477 0.130016 0.390867 0.000847083 C 0.0000764483 -0.130659 -1.424799 -1.2946 -1.555214 -2.071045 " transform="matrix(-0.86723,0.49783,0.49783,0.86723,524.0573,497.77343)"/>
<path style="fill:none;stroke-width:0.79701;stroke-linecap:butt;stroke-linejoin:miter;stroke:rgb(0%,0%,0%);stroke-opacity:1;stroke-miterlimit:10;" d="M 524.058594 497.787438 L 696.996094 398.510094 " transform="matrix(1,0,0,-1,0,996.264)"/>
<path style="fill:none;stroke-width:0.6376;stroke-linecap:round;stroke-linejoin:round;stroke:rgb(0%,0%,0%);stroke-opacity:1;stroke-miterlimit:10;" d="M -1.554637 2.070039 C -1.424221 1.293594 0.000653976 0.129653 0.3895 0.00153473 C -0.000292504 -0.127634 -1.423962 -1.29622 -1.554222 -2.073664 " transform="matrix(-0.86723,-0.49783,-0.49783,0.86723,524.0573,498.47773)"/>
<path style="fill:none;stroke-width:0.79701;stroke-linecap:butt;stroke-linejoin:miter;stroke:rgb(0%,0%,0%);stroke-opacity:1;stroke-miterlimit:10;" d="M 523.800781 497.525719 L 696.996094 199.256188 " transform="matrix(1,0,0,-1,0,996.264)"/>
<path style="fill:none;stroke-width:0.6376;stroke-linecap:round;stroke-linejoin:round;stroke:rgb(0%,0%,0%);stroke-opacity:1;stroke-miterlimit:10;" d="M -1.554351 2.070516 C -1.425998 1.295819 0.00109606 0.128349 0.38686 -0.0007942 C 0.000763108 -0.128938 -1.425077 -1.293072 -1.552595 -2.072777 " transform="matrix(-0.50214,-0.86475,-0.86475,0.50214,523.79904,498.73728)"/>
<path style="fill:none;stroke-width:0.79701;stroke-linecap:butt;stroke-linejoin:miter;stroke:rgb(0%,0%,0%);stroke-opacity:1;stroke-miterlimit:10;" d="M 524.148438 498.185875 L 1120.414063 538.588219 " transform="matrix(1,0,0,-1,0,996.264)"/>
<path style="fill:none;stroke-width:0.6376;stroke-linecap:round;stroke-linejoin:round;stroke:rgb(0%,0%,0%);stroke-opacity:1;stroke-miterlimit:10;" d="M -1.553947 2.071134 C -1.426408 1.295082 -0.00184622 0.129688 0.388834 0.0014247 C 0.00021673 -0.128866 -1.425794 -1.296937 -1.552648 -2.071418 " transform="matrix(-0.99767,0.06758,0.06758,0.99767,524.14955,498.07777)"/>
<path style="fill:none;stroke-width:0.79701;stroke-linecap:butt;stroke-linejoin:miter;stroke:rgb(0%,0%,0%);stroke-opacity:1;stroke-miterlimit:10;" d="M 524.148438 498.088219 L 1120.414063 456.693688 " transform="matrix(1,0,0,-1,0,996.264)"/>
<path style="fill:none;stroke-width:0.6376;stroke-linecap:round;stroke-linejoin:round;stroke:rgb(0%,0%,0%);stroke-opacity:1;stroke-miterlimit:10;" d="M -1.55238 2.0706 C -1.424224 1.296345 -0.00016849 0.130423 0.388661 0.000788084 C -0.00179628 -0.128131 -1.424373 -1.295902 -1.554501 -2.072427 " transform="matrix(-0.99757,-0.06926,-0.06926,0.99757,524.14949,498.17457)"/>
<path style="fill:none;stroke-width:0.79701;stroke-linecap:butt;stroke-linejoin:miter;stroke:rgb(0%,0%,0%);stroke-opacity:1;stroke-miterlimit:10;" d="M 1271.230469 663.924156 L 1543.832031 853.810875 " transform="matrix(1,0,0,-1,0,996.264)"/>
<path style="fill:none;stroke-width:0.6376;stroke-linecap:round;stroke-linejoin:round;stroke:rgb(0%,0%,0%);stroke-opacity:1;stroke-miterlimit:10;" d="M -1.553516 2.07296 C -1.425305 1.29336 0.000850022 0.128571 0.388372 0.00145775 C 0.00208619 -0.129364 -1.425079 -1.296587 -1.555777 -2.071985 " transform="matrix(-0.82053,0.57155,0.57155,0.82053,1271.2319,332.33933)"/>
<path style="fill:none;stroke-width:0.79701;stroke-linecap:butt;stroke-linejoin:miter;stroke:rgb(0%,0%,0%);stroke-opacity:1;stroke-miterlimit:10;" d="M 1271.347656 663.642906 L 1543.832031 711.342125 " transform="matrix(1,0,0,-1,0,996.264)"/>
<path style="fill:none;stroke-width:0.6376;stroke-linecap:round;stroke-linejoin:round;stroke:rgb(0%,0%,0%);stroke-opacity:1;stroke-miterlimit:10;" d="M -1.556099 2.072232 C -1.42626 1.296016 -0.000375737 0.13035 0.389024 -0.00126058 C 0.00134677 -0.13169 -1.42356 -1.294083 -1.555761 -2.072022 " transform="matrix(-0.985,0.17241,0.17241,0.985,1271.34825,332.62167)"/>
<path style="fill:none;stroke-width:0.79701;stroke-linecap:butt;stroke-linejoin:miter;stroke:rgb(0%,0%,0%);stroke-opacity:1;stroke-miterlimit:10;" d="M 1271.320313 663.287438 L 1543.832031 568.873375 " transform="matrix(1,0,0,-1,0,996.264)"/>
<path style="fill:none;stroke-width:0.6376;stroke-linecap:round;stroke-linejoin:round;stroke:rgb(0%,0%,0%);stroke-opacity:1;stroke-miterlimit:10;" d="M -1.553429 2.071921 C -1.424442 1.293911 0.0000690591 0.129646 0.388275 -0.000442294 C -0.000569492 -0.131027 -1.424869 -1.294226 -1.552864 -2.070318 " transform="matrix(-0.94487,-0.32736,-0.32736,0.94487,1271.31985,332.97518)"/>
<path style="fill:none;stroke-width:0.79701;stroke-linecap:butt;stroke-linejoin:miter;stroke:rgb(0%,0%,0%);stroke-opacity:1;stroke-miterlimit:10;" d="M 1271.320313 331.994469 L 1543.832031 427.404625 " transform="matrix(1,0,0,-1,0,996.264)"/>
<path style="fill:none;stroke-width:0.6376;stroke-linecap:round;stroke-linejoin:round;stroke:rgb(0%,0%,0%);stroke-opacity:1;stroke-miterlimit:10;" d="M -1.552909 2.070306 C -1.422446 1.296187 -0.0018942 0.128366 0.387823 0.000208476 C -0.000808324 -0.128625 -1.423019 -1.294563 -1.554526 -2.072164 " transform="matrix(-0.94379,0.33041,0.33041,0.94379,1271.31908,664.2701)"/>
<path style="fill:none;stroke-width:0.79701;stroke-linecap:butt;stroke-linejoin:miter;stroke:rgb(0%,0%,0%);stroke-opacity:1;stroke-miterlimit:10;" d="M 1271.347656 331.639 L 1543.832031 284.935875 " transform="matrix(1,0,0,-1,0,996.264)"/>
<path style="fill:none;stroke-width:0.6376;stroke-linecap:round;stroke-linejoin:round;stroke:rgb(0%,0%,0%);stroke-opacity:1;stroke-miterlimit:10;" d="M -1.555277 2.073587 C -1.425833 1.295164 -0.00117199 0.128353 0.389241 0.00105563 C -0.000633768 -0.129176 -1.425512 -1.296846 -1.554257 -2.071957 " transform="matrix(-0.98558,-0.16891,-0.16891,0.98558,1271.34865,664.6233)"/>
<path style="fill:none;stroke-width:0.79701;stroke-linecap:butt;stroke-linejoin:miter;stroke:rgb(0%,0%,0%);stroke-opacity:1;stroke-miterlimit:10;" d="M 1271.234375 331.35775 L 1543.832031 142.467125 " transform="matrix(1,0,0,-1,0,996.264)"/>
<path style="fill:none;stroke-width:0.6376;stroke-linecap:round;stroke-linejoin:round;stroke:rgb(0%,0%,0%);stroke-opacity:1;stroke-miterlimit:10;" d="M -1.556381 2.072013 C -1.425353 1.293072 -0.0000339071 0.127775 0.389149 -0.00176947 C -0.00190112 -0.130162 -1.423268 -1.295677 -1.555613 -2.071765 " transform="matrix(-0.82191,-0.56953,-0.56953,0.82191,1271.2329,664.90668)"/>
</g>
</svg>
